<svg xmlns="http://www.w3.org/2000/svg" viewBox="0 0 168.56 168.56"><defs><style>.cls-1{fill:#a4a8ad;}</style></defs><title>explgrey</title><g id="Слой_2" data-name="Слой 2"><g id="Слой_1-2" data-name="Слой 1"><path class="cls-1" d="M84.28,105.35a21.07,21.07,0,1,1,21.07-21.07A21.09,21.09,0,0,1,84.28,105.35Zm0-31.6A10.54,10.54,0,1,0,94.82,84.28,10.55,10.55,0,0,0,84.28,73.75Z"/><path class="cls-1" d="M26.34,47.41a15.81,15.81,0,1,1,15.8-15.8A15.82,15.82,0,0,1,26.34,47.41Zm0-21.07a5.27,5.27,0,1,0,5.27,5.27A5.27,5.27,0,0,0,26.34,26.34Z"/><path class="cls-1" d="M115.89,131.69a15.8,15.8,0,1,1,15.8-15.8A15.82,15.82,0,0,1,115.89,131.69Zm0-21.07a5.27,5.27,0,1,0,5.26,5.27A5.27,5.27,0,0,0,115.89,110.62Z"/><path class="cls-1" d="M84.28,168.56A84.25,84.25,0,0,1,15,36.4a5.27,5.27,0,1,1,8.65,6A73,73,0,0,0,10.54,84.28,73.75,73.75,0,1,0,84.28,10.54,72.45,72.45,0,0,0,36.9,27.93a5.26,5.26,0,1,1-6.8-8A82.78,82.78,0,0,1,84.28,0a84.28,84.28,0,0,1,0,168.56Z"/><path class="cls-1" d="M84.28,137A52.68,52.68,0,1,1,137,84.28a51.35,51.35,0,0,1-8.23,28.16,5.27,5.27,0,0,1-8.83-5.75,40.8,40.8,0,0,0,6.52-22.41,42.14,42.14,0,1,0-42.14,42.14,40.8,40.8,0,0,0,22.4-6.52,5.27,5.27,0,1,1,5.75,8.83A51.32,51.32,0,0,1,84.28,137Z"/></g></g></svg>