<svg xmlns="http://www.w3.org/2000/svg" viewBox="0 0 583.19 471.45"><defs><style>.cls-1,.cls-2{fill:#e0c016;}.cls-2{fill-opacity:0;stroke:#000;stroke-opacity:0;}</style></defs><title>contY</title><g id="Слой_2" data-name="Слой 2"><g id="Слой_1-2" data-name="Слой 1"><g id="Слой_1-2-2" data-name="Слой 1-2"><path id="a32ZxIAAWL" class="cls-1" d="M420.94,1.89H54.6L27.15,8.39C8.45,16.49-5.76,43.63,3.3,72c7.84,24.52,29.32,45.66,49.86,57.8,9.12,5.39,21.54,7.32,28.9,14.45,23,22.31,36.54,52.37,54.19,80.21a229.29,229.29,0,0,0,72.26,72.25c12.92,8.09,28.75,18.07,47,20.24l-29.62,23.12c-22.2,17.74-40.68,41.43-54.19,67.92-7.06,13.83-16.5,37.06-10.12,57.08,13.12,8.87,45.29,5.06,66.48,5.06h129.3c20.08,0,47.52,2.74,62.86-2.89,9.39-13.89,1.28-40.44-4.34-53.47C403,383.83,358,331,329.18,318.37c-.25-.48-.49-1-.73-1.44,14.56-1.83,27.65-9,38.3-15.18,67.94-39.65,81.09-91.94,127.17-149.57,9.49-11.86,23.28-14.39,36.85-22.4,12.35-7.29,25.38-18.43,34-29.62,17.42-22.73,29.28-65.31.72-86.71C540.28-5.42,464.81,1.89,420.94,1.89Zm-341,26.73c.21,34.05,7.29,61.38,11.56,89.6C66.39,105.3,41.42,94.61,30,68.36,14.35,32.18,47.83,27.9,79.89,28.62Zm412.58,89.6c4.82-27.92,12-55.77,11.57-89.6,32.18-.63,65.4,3.41,49.85,39.74-11.22,26.1-36.46,37.23-61.47,49.86Z"/><path class="cls-2" d="M420.94,1.89H54.6L27.15,8.39C8.45,16.49-5.76,43.63,3.3,72c7.84,24.52,29.32,45.66,49.86,57.8,9.12,5.39,21.54,7.32,28.9,14.45,23,22.31,36.54,52.37,54.19,80.21a229.29,229.29,0,0,0,72.26,72.25c12.92,8.09,28.75,18.07,47,20.24l-29.62,23.12c-22.2,17.74-40.68,41.43-54.19,67.92-7.06,13.83-16.5,37.06-10.12,57.08,13.12,8.87,45.29,5.06,66.48,5.06h129.3c20.08,0,47.52,2.74,62.86-2.89,9.39-13.89,1.28-40.44-4.34-53.47C403,383.83,358,331,329.18,318.37c-.25-.48-.49-1-.73-1.44,14.56-1.83,27.65-9,38.3-15.18,67.94-39.65,81.09-91.94,127.17-149.57,9.49-11.86,23.28-14.39,36.85-22.4,12.35-7.29,25.38-18.43,34-29.62,17.42-22.73,29.28-65.31.72-86.71C540.28-5.42,464.81,1.89,420.94,1.89Zm-341,26.73c.21,34.05,7.29,61.38,11.56,89.6C66.39,105.3,41.42,94.61,30,68.36,14.35,32.18,47.83,27.9,79.89,28.62Zm412.58,89.6c4.82-27.92,12-55.77,11.57-89.6,32.18-.63,65.4,3.41,49.85,39.74-11.22,26.1-36.46,37.23-61.47,49.86Z"/></g></g></g></svg>