<svg xmlns="http://www.w3.org/2000/svg" viewBox="0 0 154.91 154.68"><defs><style>.cls-1{fill:#fff;}</style></defs><title>maxW</title><g id="Слой_2" data-name="Слой 2"><g id="Слой_2-2" data-name="Слой 2"><path class="cls-1" d="M73.7,148.29v.32a6.07,6.07,0,0,1-6.07,6.07H6.07A6.07,6.07,0,0,1,0,148.61V87.05A6.07,6.07,0,0,1,6.07,81h.32a6.07,6.07,0,0,1,6.07,6.07v46.59L63.91,82.19a6.07,6.07,0,0,1,8.58,0l.23.23a6.07,6.07,0,0,1,0,8.58L21.5,142.22H67.63A6.07,6.07,0,0,1,73.7,148.29Z"/><path class="cls-1" d="M81.21,6.39V6.07A6.07,6.07,0,0,1,87.28,0h61.56a6.07,6.07,0,0,1,6.07,6.07V67.63a6.07,6.07,0,0,1-6.07,6.07h-.32a6.07,6.07,0,0,1-6.07-6.07V21L91,72.49a6.07,6.07,0,0,1-8.58,0l-.23-.23a6.07,6.07,0,0,1,0-8.58l51.22-51.22H87.28A6.07,6.07,0,0,1,81.21,6.39Z"/></g></g></svg>