<svg xmlns="http://www.w3.org/2000/svg" viewBox="0 0 584.29 495"><defs><style>.cls-1,.cls-2{fill:#0c0d0e;}.cls-2{fill-opacity:0;stroke:#000;stroke-opacity:0;}</style></defs><title>homeB</title><g id="Слой_2" data-name="Слой 2"><g id="Слой_1-2" data-name="Слой 1"><g id="Слой_1-2-2" data-name="Слой 1-2"><path id="e2Wkpuo0D" class="cls-1" d="M560.06,231.69l-30.64-28L359.92,53.11,317.54,15.28C312.1,10.89,307.9,4.9,300.89,2,297.17.51,292.55.46,287.27.52l-7.94,2.65c-8.11,4.49-13.78,12.5-20.81,18.16L203.28,70.89,56.48,202.18,18.65,236.61c-5,4-11.37,8.43-14.76,14-5.73,9.43-3.67,23.1,2.27,30.64C11.39,287.88,24,293,35.3,288.82c6.92-2.55,11-8.63,16.26-12.86l33.68-29.51,206.2-185,207.33,185,32.54,28.37c5.43,4.38,9.74,10.76,16.64,13.62,12.15,5,25.57-.83,31-8.32,4.67-6.41,6.95-19.57,2.27-28C576.69,243.92,567.22,237.45,560.06,231.69Zm-53,31.78-37.45-32.91L341,117.43,306.57,87.16c-4.26-3.42-7.91-10.07-14.38-11-15.6,10.82-28.06,25.67-42.75,37.46l-127.13,112Q93.2,251.36,64.05,277.08q.2,107.46.38,214.91c6,4.19,23.13,1.89,32.54,1.89h83.61l337.86-.37c4.94-7.6,1.9-43,1.9-55.62V276q-9.6-9.62-13.25-12.53ZM231.66,466.63V279.74H352.35V466.63Z"/><path class="cls-2" d="M560.06,231.69l-30.64-28L359.92,53.11,317.54,15.28C312.1,10.89,307.9,4.9,300.89,2,297.17.51,292.55.46,287.27.52l-7.94,2.65c-8.11,4.49-13.78,12.5-20.81,18.16L203.28,70.89,56.48,202.18,18.65,236.61c-5,4-11.37,8.43-14.76,14-5.73,9.43-3.67,23.1,2.27,30.64C11.39,287.88,24,293,35.3,288.82c6.92-2.55,11-8.63,16.26-12.86l33.68-29.51,206.2-185,207.33,185,32.54,28.37c5.43,4.38,9.74,10.76,16.64,13.62,12.15,5,25.57-.83,31-8.32,4.67-6.41,6.95-19.57,2.27-28C576.69,243.92,567.22,237.45,560.06,231.69Zm-53,31.78-37.45-32.91L341,117.43,306.57,87.16c-4.26-3.42-7.91-10.07-14.38-11-15.6,10.82-28.06,25.67-42.75,37.46l-127.13,112Q93.2,251.36,64.05,277.08q.2,107.46.38,214.91c6,4.19,23.13,1.89,32.54,1.89h83.61l337.86-.37c4.94-7.6,1.9-43,1.9-55.62V276q-9.6-9.62-13.25-12.53ZM231.66,466.63V279.74H352.35V466.63Z"/></g></g></g></svg>