<svg xmlns="http://www.w3.org/2000/svg" viewBox="0 0 41.77 168.56" width="10px" height="auto"><defs><style>.cls-1{fill:#a4a8ad;}</style></defs><title>3dotsgrey</title><g id="Слой_2" data-name="Слой 2"><g id="Слой_1-2" data-name="Слой 1"><path class="cls-1" d="M20.88,42.14A21.07,21.07,0,0,1,20.88,0a21.07,21.07,0,0,1,0,42.14ZM20.88,7A14.05,14.05,0,1,0,34.8,21.07,14,14,0,0,0,20.88,7Z"/><path class="cls-1" d="M20.88,105.35a21.07,21.07,0,0,1,0-42.14,21.07,21.07,0,0,1,0,42.14Zm0-35.12a14.05,14.05,0,1,0,13.92,14A14,14,0,0,0,20.88,70.23Z"/><path class="cls-1" d="M20.88,168.56a21.07,21.07,0,0,1,0-42.14,21.07,21.07,0,0,1,0,42.14Zm0-35.11a14,14,0,1,0,13.92,14A14,14,0,0,0,20.88,133.45Z"/></g></g></svg>