<svg xmlns="http://www.w3.org/2000/svg" viewBox="0 0 459.18 571.37"><defs><style>.cls-1,.cls-2{fill:#a4a8ad;}.cls-2{fill-opacity:0;stroke:#000;stroke-opacity:0;}</style></defs><title>notifG</title><g id="Слой_2" data-name="Слой 2"><g id="Слой_1-2" data-name="Слой 1"><path id="c6jwOONedx" class="cls-1" d="M422.09,416.18,401.6,400.72V272.36c0-24.08,2.11-51.07-2.36-71.91-6.86-32-18.22-56.52-34.94-78.29-15.13-19.69-37.18-37.82-61.16-48.39-9.2-4.06-20.14-6-29.57-10.75h-.67c.34-40.27-8.75-63-48.73-62.51L213.76,3.2C200,8.91,190.2,20.6,187.21,37.14Q187,50.09,186.87,63c-59,15-102.86,57.32-120.63,113.57-4,12.83-5.24,26.62-7.73,41.67l-.33,181.79c-2.41,4.18-9.23,7.23-13.11,10.08L26.93,424.24c-12.58,9.22-36.06,23.83-22.18,47.38,3.31,5.62,9.11,11,15.79,13.11,8.92,2.87,23.21,1.34,34.28,1.34H409.66c10,0,23.08,1.39,30.58-1.68,13.59-5.55,24.67-24.8,14.45-41.67C447.94,431.59,432.49,423.82,422.09,416.18ZM172.76,514.63c-.38,75.55,115.17,74.42,114.25,0Z"/><path class="cls-2" d="M422.09,416.18,401.6,400.72V272.36c0-24.08,2.11-51.07-2.36-71.91-6.86-32-18.22-56.52-34.94-78.29-15.13-19.69-37.18-37.82-61.16-48.39-9.2-4.06-20.14-6-29.57-10.75h-.67c.34-40.27-8.75-63-48.73-62.51L213.76,3.2C200,8.91,190.2,20.6,187.21,37.14Q187,50.09,186.87,63c-59,15-102.86,57.32-120.63,113.57-4,12.83-5.24,26.62-7.73,41.67l-.33,181.79c-2.41,4.18-9.23,7.23-13.11,10.08L26.93,424.24c-12.58,9.22-36.06,23.83-22.18,47.38,3.31,5.62,9.11,11,15.79,13.11,8.92,2.87,23.21,1.34,34.28,1.34H409.66c10,0,23.08,1.39,30.58-1.68,13.59-5.55,24.67-24.8,14.45-41.67C447.94,431.59,432.49,423.82,422.09,416.18ZM172.76,514.63c-.38,75.55,115.17,74.42,114.25,0Z"/></g></g></svg>