<svg xmlns="http://www.w3.org/2000/svg" viewBox="0 0 581.55 456.62"><defs><style>.cls-1{fill:#a4a8ad;}</style></defs><title>UplG</title><g id="Слой_2" data-name="Слой 2"><g id="Слой_1-2" data-name="Слой 1"><path id="b3lOWwdN5" class="cls-1" d="M371.84,419.3q-.18-50.67-.35-101.36l-29.44-.34-72.25-113-.69-.34-28.42,43.83c-.43,2.82,8.61,14.42,10.62,17.46l32.87,51.37v.34l-26.71.34L165.36,173.44c-3.58,1.36-5.56,7.49-7.53,10.62l-18.49,28.76Q105.6,265.2,71.88,317.6H49.28q-.16-134.39-.34-268.79l402-.35.69,194.84c1.95,1.7,9.35.68,12.67.68H499.9c2.89-6.43.69-20.43.68-28.42V45.72c0-16.77,1.68-33.9-7.87-41.09-8-6-24.34-4.45-38.35-4.45H19.49c-8.61,3.45-14.37,4.66-17.8,13C-1,19.68.32,31.29.32,39.9V406.63c0,12.63-.59,23.89,4.79,30.82C11.5,445.68,24.57,445,39.35,445H438.61c1.17-2.51,1.59-22,.34-25-2.54-2.21-13.3-.68-17.46-.68ZM331.77,125.16c-10.37,29,15.64,61.42,45.89,56.5,18.17-2.95,30-13,35.95-28.08,12.11-30.85-14.23-58.17-42.8-57.86l-12,2A44.74,44.74,0,0,0,331.77,125.16ZM580.71,342.6c-3.94-1.73-11.55-1-17.12-1H516.68q-.18-33.37-.34-66.77c-1.91-1.67-9.07-.69-12.33-.69H469.43q-.18,33.74-.35,67.46H402c-1.08,2.37-1.54,43.92-.34,46.91,2.54,2.22,13.3.69,17.46.69h49.65q.17,33.54.34,67.11l46.91.34c2.06-4.57.69-14.29.69-20.2V389.51l63.35-.69C583,380.78,580.76,353.36,580.71,342.6Z"/></g></g></svg>